<?xml version="1.0" encoding="UTF-8"?> <svg xmlns="http://www.w3.org/2000/svg" xmlns:xlink="http://www.w3.org/1999/xlink" version="1.1" id="Layer_1" x="0px" y="0px" viewBox="-1036 2784.3 336 101" style="enable-background:new -1036 2784.3 336 101;" xml:space="preserve"> <style type="text/css"> .st0{fill:#1A1918;} </style> <title>Fill 1</title> <desc>Created with Sketch.</desc> <g id="Page-1"> <g id="BCLlogo_black"> <path id="Fill-1" class="st0" d="M-782,2875.8c0,1.9,1,2.9,2.3,2.9c1.3,0,2.2-0.7,3.2-1.9l-0.2-0.2c-0.9,1-1.6,1.4-2.6,1.4 c-0.8,0-1.4-0.8-1.4-2.1c0-0.2,0-0.3,0-0.5c3.3-0.6,4.7-1.7,4.7-3.1c0-1-0.7-1.5-1.7-1.5C-780,2870.8-782,2873.7-782,2875.8 L-782,2875.8z M-777.3,2872.4c0,1.4-0.7,2.1-3.4,2.6c0.3-2.1,1.7-3.8,2.6-3.8C-777.6,2871.3-777.3,2871.6-777.3,2872.4 L-777.3,2872.4z M-786,2877.4c0,0.6,0.3,1.1,1,1.1c0.9,0,1.5-0.8,2.3-2l-0.2-0.2c-0.7,1.1-1.2,1.6-1.5,1.6c-0.2,0-0.4-0.2-0.4-0.5 c0-0.2,0.2-0.8,0.3-1.1l0.9-2.4c0.2-0.4,0.4-1.1,0.4-1.6c0-0.8-0.4-1.3-1.2-1.3c-1.2,0-2.3,1.3-3.3,3l-0.1,0l0.3-0.8 c0.3-0.9,0.5-1.5,0.5-2.2l-2.5,0.1l-0.1,0.4h0.6c0.6,0,0.8,0.1,0.8,0.4c0,0.2,0,0.3-0.1,0.6l-1.8,5.9h1.2l0.6-2 c0.6-2,2.3-4.7,3.5-4.7c0.4,0,0.6,0.2,0.6,0.6c0,0.4-0.2,1.1-0.4,1.5l-0.9,2.4C-785.9,2876.6-786,2877.1-786,2877.4L-786,2877.4z M-794.2,2877.4c0,0.6,0.4,1.1,1.1,1.1c0.9,0,1.5-0.7,2.2-2l-0.2-0.2c-0.7,1.1-1.1,1.5-1.4,1.5c-0.2,0-0.4-0.2-0.4-0.5 c0-0.3,0.1-0.8,0.2-1.1l1-3.1c0.3-0.9,0.4-1.5,0.4-2.2l-2.5,0.1l-0.1,0.4h0.6c0.6,0,0.8,0.1,0.8,0.4c0,0.1,0,0.3-0.1,0.6l-1.1,3.7 C-794.1,2876.6-794.2,2877-794.2,2877.4L-794.2,2877.4z M-792.4,2868.1c0,0.5,0.4,1,1,1c0.5,0,0.9-0.4,0.9-1c0-0.5-0.4-1-0.9-1 C-791.9,2867.2-792.4,2867.6-792.4,2868.1L-792.4,2868.1z M-800.4,2877.5c0.8,0,1.3,1.1,2.3,1.1c1.5,0,2.6-1.2,2.7-2.7h-0.3 c-0.3,1.2-0.9,1.6-1.8,1.6c-0.8,0-1.1-0.5-2.1-0.5c-0.3,0-0.9,0.1-1.5,0.4l-0.1-0.1c0.9-1.1,2.4-2,3.5-2.9 c1.6-1.2,2.6-2.2,2.6-2.9c0-0.3-0.1-0.5-0.3-0.5c-0.2,0-0.4,0.2-0.5,0.4c-0.1,0.3-0.4,0.5-0.6,0.5c-0.9,0-1.2-0.9-2.2-0.9 c-1.4,0-2.1,1.2-2.3,2.4h0.2c0.4-0.9,0.8-1.4,1.6-1.4s1.1,0.5,1.9,0.5c0.7,0,1.1-0.2,1.6-0.7l0.1,0c-0.8,1.3-2.5,2.1-3.9,3.2 c-1.3,1-2.4,2.1-2.4,2.9c0,0.3,0.2,0.6,0.5,0.6c0.3,0,0.5-0.2,0.5-0.6C-800.9,2877.7-800.7,2877.5-800.4,2877.5L-800.4,2877.5z M-809.6,2876c0,1.7,0.8,2.5,1.8,2.5c0.9,0,1.7-0.8,2.4-1.9h0.1c0,0.2-0.1,0.6-0.1,0.8c0,0.6,0.3,1,1,1c0.9,0,1.5-0.8,2.2-2 l-0.2-0.2c-0.7,1.1-1.1,1.6-1.5,1.6c-0.2,0-0.3-0.1-0.3-0.5c0-0.3,0.1-0.7,0.2-1.1l1.5-5.3h-0.5c-0.2,0.5-0.7,1.3-1.1,1.7h-0.1 c-0.3-1.1-0.8-1.7-1.9-1.7C-807.5,2870.9-809.6,2873.2-809.6,2876L-809.6,2876z M-804.5,2873.3c0,2.3-1.8,4.5-2.8,4.5 c-0.6,0-0.9-0.7-0.9-1.7c0-1.9,1-4.6,2.6-4.6C-804.9,2871.5-804.5,2872.2-804.5,2873.3L-804.5,2873.3z M-818.8,2880 c0,1.2,1.9,1.7,3.9,1.7c2.2,0,3.4-1.1,3.4-2.2c0-1.1-0.9-1.7-2.6-2c-1.9-0.3-2.1-0.5-2.1-0.9c0-0.3,0.3-0.5,0.9-0.8 c0.4,0.2,0.8,0.3,1.3,0.3c1.7,0,3.1-1.3,3.1-2.9c0-0.7-0.3-1.3-0.9-1.8c0.4-0.4,0.8-0.7,1-0.7c0.1,0,0.2,0.1,0.2,0.2 c-0.1,0.6,0.2,0.8,0.6,0.8c0.4,0,0.7-0.3,0.7-0.8c0-0.6-0.5-0.9-1-0.9c-0.6,0-1.1,0.4-1.8,1.1c-0.4-0.2-0.9-0.4-1.4-0.4 c-1.5,0-3,1.2-3,2.9c0,0.7,0.3,1.4,0.9,1.8c-1.2,0.5-1.8,0.9-1.8,1.5c0,0.5,0.3,0.7,1.3,1.1v0.1 C-817.8,2878.5-818.8,2879.1-818.8,2880L-818.8,2880z M-812.4,2879.9c0,0.8-0.9,1.4-2.5,1.4c-1.5,0-2.8-0.4-2.8-1.4 c0-0.7,0.7-1.4,2.1-1.4C-813.6,2878.5-812.4,2879.1-812.4,2879.9L-812.4,2879.9z M-812.3,2872.7c0,1.5-0.8,3.1-1.9,3.1 c-0.7,0-1.2-0.6-1.2-1.6c0-1.4,0.8-3,1.9-3C-812.7,2871.2-812.3,2871.9-812.3,2872.7L-812.3,2872.7z M-825.5,2876 c0,1.7,0.8,2.5,1.8,2.5c0.9,0,1.7-0.8,2.4-1.9h0.1c0,0.2-0.1,0.6-0.1,0.8c0,0.6,0.3,1,1,1c0.9,0,1.5-0.8,2.2-2l-0.2-0.2 c-0.7,1.1-1.1,1.6-1.5,1.6c-0.2,0-0.3-0.1-0.3-0.5c0-0.3,0.1-0.7,0.2-1.1l1.5-5.3h-0.4c-0.2,0.5-0.7,1.3-1.1,1.7h-0.1 c-0.3-1.1-0.8-1.7-1.9-1.7C-823.5,2870.9-825.5,2873.2-825.5,2876L-825.5,2876z M-820.4,2873.3c0,2.3-1.8,4.5-2.8,4.5 c-0.6,0-0.9-0.7-0.9-1.7c0-1.9,1-4.6,2.6-4.6C-820.9,2871.5-820.4,2872.2-820.4,2873.3L-820.4,2873.3z M-833.9,2878.6h0.5 l5.7-10.2h0.1l-2.1,8.6c-0.2,0.8-0.4,1-1.2,1h-0.7l-0.1,0.4h4.7l0.1-0.4h-0.5c-0.8,0-1.1-0.2-0.9-1l2-8.2c0.2-0.8,0.6-1,1.4-1h0.5 l0.1-0.4h-3.5l-5,9.1l-0.6-9.1h-3.5l-0.1,0.4h0.5c0.8,0,1.1,0.2,0.9,1l-1.8,7.2c-0.4,1.7-0.9,2.1-2.1,2.1h-0.2l-0.1,0.4h4.2 l0.1-0.4h-0.1c-1.4,0-1.6-0.4-1.2-2.1l1.9-7.6h0.1L-833.9,2878.6z M-848.6,2875.8c0,1.9,1,2.9,2.3,2.9c1.3,0,2.2-0.7,3.2-1.9 l-0.2-0.2c-0.9,1-1.6,1.4-2.6,1.4c-0.8,0-1.4-0.8-1.4-2.1c0-0.2,0-0.3,0-0.5c3.3-0.6,4.8-1.7,4.8-3.1c0-1-0.7-1.5-1.7-1.5 C-846.6,2870.8-848.6,2873.7-848.6,2875.8L-848.6,2875.8z M-843.8,2872.4c0,1.4-0.7,2.1-3.3,2.6c0.3-2.1,1.7-3.8,2.6-3.8 C-844.2,2871.3-843.8,2871.6-843.8,2872.4L-843.8,2872.4z M-852.7,2877.4c0,0.6,0.3,1.1,1,1.1c0.9,0,1.5-0.8,2.3-2l-0.2-0.2 c-0.7,1.1-1.2,1.6-1.5,1.6c-0.2,0-0.3-0.2-0.3-0.5c0-0.2,0.1-0.7,0.3-1.1l2.6-9.2l-2.7,0.3l-0.1,0.4h0.5c0.6,0,0.8,0.1,0.8,0.4 c0,0.1,0,0.3-0.1,0.6l-2.2,7.7C-852.6,2876.8-852.7,2877.1-852.7,2877.4L-852.7,2877.4z M-861.3,2880.7c0,0.6,0.6,1,1.3,1 c1.5,0,2.8-2.1,4-4.1c1.4-2.2,2.8-4.6,2.8-5.7c0-0.6-0.3-1-0.8-1c-0.5,0-0.8,0.3-0.8,0.8c0,0.5,0.4,0.8,0.4,1.5 c0,0.8-1.1,2.9-1.7,4c-0.1-1.1-0.3-2.1-0.5-3c-0.6-2.7-0.8-3.2-1.5-3.2c-0.9,0-1.4,0.7-2.2,2l0.2,0.2c0.7-1.1,1-1.3,1.2-1.3 c0.3,0,0.5,0.4,0.9,2.1c0.4,1.4,0.7,3.1,0.9,4.7c-0.7,1.1-1.8,2.6-2.6,2.6c-0.1,0-0.2,0-0.2-0.1c0-0.1,0.1-0.2,0.1-0.5 c0-0.4-0.3-0.7-0.7-0.7C-861,2879.9-861.3,2880.2-861.3,2880.7L-861.3,2880.7z M-865.4,2877.2c0,0.9,0.6,1.4,1.4,1.4 c1.2,0,1.9-0.7,2.8-2.5l-0.2-0.2c-0.7,1.4-1.4,2-2,2c-0.5,0-0.7-0.4-0.7-0.8c0-0.3,0-0.5,0.1-0.8l1.4-4.7h2.3l0.1-0.5h-2.2 l0.9-3.1h-0.5c-0.9,2.3-1.5,2.9-3,3.2l-0.1,0.3h1.2l-1.4,4.7C-865.3,2876.6-865.4,2876.9-865.4,2877.2L-865.4,2877.2z M-872.1,2876.9c0,0.9,1,1.8,2.5,1.8c1.5,0,2.8-0.9,2.8-2.3c0-1.1-0.9-1.8-1.7-2.3c-0.9-0.5-1.3-0.8-1.3-1.6 c0-0.8,0.6-1.2,1.4-1.2c0.6,0,1.1,0.2,1.1,0.5c0,0.2-0.4,0.2-0.4,0.7c0,0.4,0.4,0.7,0.7,0.7c0.5,0,0.8-0.4,0.8-0.9 c0-0.7-0.9-1.4-2.2-1.4c-1.5,0-2.5,1-2.5,2.2c0,1,0.7,1.6,1.5,2.1c1.1,0.6,1.5,0.9,1.5,1.7c0,0.8-0.7,1.4-1.7,1.4 c-0.7,0-1.3-0.3-1.3-0.6c0-0.3,0.5-0.2,0.5-0.8c0-0.5-0.4-0.8-0.9-0.8C-871.7,2875.9-872.1,2876.3-872.1,2876.9L-872.1,2876.9z M-878.2,2875.8c0,1.9,1,2.9,2.3,2.9c1.3,0,2.2-0.7,3.2-1.9l-0.2-0.2c-0.9,1-1.6,1.4-2.6,1.4c-0.8,0-1.4-0.8-1.4-2.1 c0-0.2,0-0.3,0-0.5c3.3-0.6,4.7-1.7,4.7-3.1c0-1-0.7-1.5-1.7-1.5C-876.2,2870.8-878.2,2873.7-878.2,2875.8L-878.2,2875.8z M-873.5,2872.4c0,1.4-0.7,2.1-3.4,2.6c0.3-2.1,1.7-3.8,2.6-3.8C-873.8,2871.3-873.5,2871.6-873.5,2872.4L-873.5,2872.4z M-884.9,2880.7c0,0.4,0.4,0.8,0.9,0.8c1.4,0,2.3-1.4,3.5-6.2l0.9-3.7h1.8l0.1-0.5h-1.8l0.2-0.9c0.5-1.9,0.7-2.3,1.3-2.5 c0.2-0.1,0.3,0,0.3,0.1c0,0.1-0.1,0.3-0.1,0.6c0,0.5,0.4,0.7,0.7,0.7c0.5,0,0.8-0.5,0.8-0.9c0-0.6-0.5-1-1.2-1 c-1.6,0-2.8,1.6-3.3,3.8l-0.1,0.2h-1.1l-0.1,0.5h1.1l-1.8,7.5c-0.3,1.3-0.6,1.8-0.8,1.8c-0.2,0-0.1-0.2-0.2-0.4 c-0.1-0.3-0.3-0.4-0.6-0.4C-884.6,2880-884.9,2880.3-884.9,2880.7L-884.9,2880.7z M-886.7,2877.4c0,0.6,0.4,1.1,1.1,1.1 c0.9,0,1.5-0.7,2.2-2l-0.2-0.2c-0.7,1.1-1.1,1.5-1.4,1.5c-0.2,0-0.4-0.2-0.4-0.5c0-0.3,0.1-0.8,0.2-1.1l1-3.1 c0.3-0.9,0.4-1.5,0.4-2.2l-2.5,0.1l-0.1,0.4h0.6c0.6,0,0.8,0.1,0.8,0.4c0,0.1,0,0.3-0.1,0.6l-1.1,3.7 C-886.5,2876.6-886.7,2877-886.7,2877.4L-886.7,2877.4z M-884.8,2868.1c0,0.5,0.4,1,1,1c0.5,0,0.9-0.4,0.9-1c0-0.5-0.4-1-0.9-1 C-884.4,2867.2-884.8,2867.6-884.8,2868.1L-884.8,2868.1z M-897.5,2878.4h8.5l1.3-4.3h-0.3c-1.1,2.6-2,3.9-4.5,3.9h-0.7 c-0.8,0-1.1-0.2-0.9-1l2.1-8.2c0.2-0.8,0.6-1,1.4-1h0.8l0.1-0.4h-5l-0.1,0.4h0.5c0.8,0,1.1,0.2,0.9,1l-2,8.2c-0.2,0.8-0.6,1-1.4,1 h-0.5L-897.5,2878.4z M-906.2,2878.4h1.2l0.6-2c0.6-2,2.2-4.5,2.8-4.5c0.1,0,0.1,0.1,0.2,0.3c0.1,0.4,0.4,0.6,0.7,0.6 c0.4,0,0.8-0.4,0.8-1c0-0.7-0.5-0.9-1-0.9c-0.9,0-1.8,1.2-2.8,3.1l-0.1,0l0.3-0.8c0.3-0.8,0.5-1.5,0.5-2.2l-2.5,0.1l-0.1,0.4h0.5 c0.6,0,0.8,0.1,0.8,0.4c0,0.2,0,0.3-0.1,0.6L-906.2,2878.4z M-912.7,2875.8c0,1.9,1,2.9,2.3,2.9c1.3,0,2.2-0.7,3.2-1.9l-0.2-0.2 c-0.9,1-1.6,1.4-2.6,1.4c-0.8,0-1.4-0.8-1.4-2.1c0-0.2,0-0.3,0-0.5c3.3-0.6,4.7-1.7,4.7-3.1c0-1-0.7-1.5-1.7-1.5 C-910.7,2870.8-912.7,2873.7-912.7,2875.8L-912.7,2875.8z M-907.9,2872.4c0,1.4-0.7,2.1-3.4,2.6c0.3-2.1,1.7-3.8,2.6-3.8 C-908.3,2871.3-907.9,2871.6-907.9,2872.4L-907.9,2872.4z M-916.7,2877.4c0,0.6,0.4,1.1,1.1,1.1c0.9,0,1.5-0.7,2.2-2l-0.2-0.2 c-0.7,1.1-1.1,1.5-1.4,1.5c-0.2,0-0.4-0.2-0.4-0.5c0-0.3,0.1-0.8,0.2-1.1l1-3.1c0.3-0.9,0.4-1.5,0.4-2.2l-2.5,0.1l-0.1,0.4h0.6 c0.6,0,0.8,0.1,0.8,0.4c0,0.1,0,0.3-0.1,0.6l-1.1,3.7C-916.6,2876.6-916.7,2877-916.7,2877.4L-916.7,2877.4z M-914.8,2868.1 c0,0.5,0.4,1,1,1c0.5,0,0.9-0.4,0.9-1c0-0.5-0.4-1-0.9-1C-914.4,2867.2-914.8,2867.6-914.8,2868.1L-914.8,2868.1z M-921.1,2877.4 c0,0.6,0.3,1.1,1,1.1c0.9,0,1.5-0.8,2.3-2l-0.2-0.2c-0.7,1.1-1.2,1.6-1.5,1.6c-0.2,0-0.4-0.2-0.4-0.5c0-0.2,0.2-0.8,0.3-1.1 l0.9-2.4c0.2-0.4,0.4-1.1,0.4-1.6c0-0.8-0.4-1.3-1.2-1.3c-1.2,0-2.2,1.3-3.2,3l-0.1,0c0.2-0.6,0.5-1.2,0.5-1.7 c0-0.8-0.3-1.3-1.1-1.3c-1.2,0-2.2,1.3-3.2,3l-0.1,0l0.3-0.8c0.3-0.9,0.5-1.5,0.5-2.2l-2.5,0.1l-0.1,0.4h0.6 c0.6,0,0.8,0.1,0.8,0.4c0,0.2,0,0.3-0.1,0.6l-1.8,5.9h1.2l0.6-2c0.6-2,2.3-4.7,3.4-4.7c0.4,0,0.5,0.3,0.5,0.7 c0,0.3-0.1,0.7-0.2,1.2l-1.5,4.8h1.2l0.6-2c0.6-2,2.2-4.7,3.4-4.7c0.4,0,0.5,0.2,0.5,0.6c0,0.4-0.2,1-0.4,1.5l-0.9,2.4 C-921,2876.6-921.1,2877.1-921.1,2877.4L-921.1,2877.4z M-935.7,2875.8c0,1.9,1,2.9,2.3,2.9c1.3,0,2.2-0.7,3.2-1.9l-0.2-0.2 c-0.9,1-1.6,1.4-2.6,1.4c-0.8,0-1.4-0.8-1.4-2.1c0-0.2,0-0.3,0-0.5c3.3-0.6,4.7-1.7,4.7-3.1c0-1-0.7-1.5-1.7-1.5 C-933.7,2870.8-935.7,2873.7-935.7,2875.8L-935.7,2875.8z M-931,2872.4c0,1.4-0.7,2.1-3.4,2.6c0.3-2.1,1.7-3.8,2.6-3.8 C-931.3,2871.3-931,2871.6-931,2872.4L-931,2872.4z M-941.9,2878.4h1.2l0.6-2c0.6-2,2.2-4.5,2.8-4.5c0.1,0,0.1,0.1,0.2,0.3 c0.1,0.4,0.4,0.6,0.7,0.6c0.4,0,0.8-0.4,0.8-1c0-0.7-0.5-0.9-1-0.9c-0.9,0-1.8,1.2-2.8,3.1l-0.1,0l0.3-0.8 c0.3-0.8,0.5-1.5,0.5-2.2l-2.5,0.1l-0.1,0.4h0.5c0.6,0,0.8,0.1,0.8,0.4c0,0.2,0,0.3-0.1,0.6L-941.9,2878.4z M-952.6,2878.4h5 l0.1-0.4h-0.8c-0.8,0-1.1-0.2-0.9-1l0.9-3.5h1.1c2.8,0,5.5-1,5.5-3.3c0-2-1.6-2.8-4-2.8h-4.2l-0.1,0.4h0.5c0.8,0,1.1,0.2,0.9,1 l-2.1,8.2c-0.2,0.8-0.6,1-1.4,1h-0.5L-952.6,2878.4z M-948.2,2873l1.1-4.3c0.2-0.8,0.6-1,1.4-1h0.1c1.6,0,2.3,0.8,2.3,2 c0,2.2-1,3.3-3.7,3.3H-948.2z M-961.3,2876.9c0,0.9,1,1.8,2.5,1.8c1.5,0,2.8-0.9,2.8-2.3c0-1.1-0.9-1.8-1.7-2.3 c-0.9-0.5-1.3-0.8-1.3-1.6c0-0.8,0.6-1.2,1.4-1.2c0.7,0,1.1,0.2,1.1,0.5c0,0.2-0.4,0.2-0.4,0.7c0,0.4,0.4,0.7,0.8,0.7 c0.5,0,0.8-0.4,0.8-0.9c0-0.7-0.9-1.4-2.2-1.4c-1.5,0-2.5,1-2.5,2.2c0,1,0.7,1.6,1.5,2.1c1.1,0.6,1.5,0.9,1.5,1.7 c0,0.8-0.7,1.4-1.7,1.4c-0.7,0-1.3-0.3-1.3-0.6c0-0.3,0.5-0.2,0.5-0.8c0-0.5-0.4-0.8-0.8-0.8 C-960.9,2875.9-961.3,2876.3-961.3,2876.9L-961.3,2876.9z M-963,2871.7c1.9-1.2,2.7-2.4,2.7-3.4c0-0.7-0.4-1.1-0.9-1.1 c-0.5,0-1,0.3-1,1c0,0.3,0.1,0.5,0.3,0.7c0.2,0.2,0.3,0.4,0.3,0.6c0,0.3-0.3,0.9-1.6,1.9L-963,2871.7z M-967.7,2877.4 c0,0.6,0.3,1.1,1,1.1c0.9,0,1.5-0.8,2.3-2l-0.2-0.2c-0.7,1.1-1.2,1.6-1.5,1.6c-0.2,0-0.4-0.2-0.4-0.5c0-0.2,0.2-0.8,0.3-1.1 l0.9-2.4c0.2-0.4,0.4-1.1,0.4-1.6c0-0.8-0.4-1.3-1.2-1.3c-1.2,0-2.3,1.3-3.3,3l-0.1,0l0.3-0.8c0.3-0.9,0.5-1.5,0.5-2.2l-2.5,0.1 l-0.1,0.4h0.6c0.6,0,0.8,0.1,0.8,0.4c0,0.2,0,0.3-0.1,0.6l-1.8,5.9h1.2l0.6-2c0.6-2,2.3-4.7,3.5-4.7c0.4,0,0.6,0.2,0.6,0.6 c0,0.4-0.2,1.1-0.4,1.5l-0.9,2.4C-967.6,2876.6-967.7,2877.1-967.7,2877.4L-967.7,2877.4z M-979.2,2875.7c0,1.7,0.8,3,2.4,3 c2.1,0,4.1-2.4,4.1-4.9c0-1.7-0.8-3-2.4-3C-977.2,2870.8-979.2,2873.2-979.2,2875.7L-979.2,2875.7z M-974,2872.9 c0,2.5-1.3,5.3-2.9,5.3c-0.6,0-1.1-0.5-1.1-1.7c0-2.5,1.3-5.3,2.9-5.3C-974.5,2871.2-974,2871.7-974,2872.9L-974,2872.9z M-983.2,2877.4c0,0.6,0.4,1.1,1.1,1.1c0.9,0,1.5-0.7,2.2-2l-0.2-0.2c-0.7,1.1-1.1,1.5-1.4,1.5c-0.2,0-0.4-0.2-0.4-0.5 c0-0.3,0.1-0.8,0.2-1.1l1-3.1c0.3-0.9,0.4-1.5,0.4-2.2l-2.5,0.1l-0.1,0.4h0.6c0.6,0,0.8,0.1,0.8,0.4c0,0.1,0,0.3-0.1,0.6l-1.1,3.7 C-983.1,2876.6-983.2,2877-983.2,2877.4L-983.2,2877.4z M-981.4,2868.1c0,0.5,0.4,1,1,1c0.5,0,0.9-0.4,0.9-1c0-0.5-0.4-1-0.9-1 C-981,2867.2-981.4,2867.6-981.4,2868.1L-981.4,2868.1z M-992.9,2880c0,1.2,1.9,1.7,3.9,1.7c2.2,0,3.5-1.1,3.5-2.2 c0-1.1-0.9-1.7-2.6-2c-1.9-0.3-2.1-0.5-2.1-0.9c0-0.3,0.3-0.5,0.9-0.8c0.4,0.2,0.8,0.3,1.3,0.3c1.7,0,3.1-1.3,3.1-2.9 c0-0.7-0.3-1.3-0.9-1.8c0.4-0.4,0.8-0.7,1-0.7c0.1,0,0.2,0.1,0.2,0.2c-0.1,0.6,0.2,0.8,0.6,0.8c0.4,0,0.7-0.3,0.7-0.8 c0-0.6-0.5-0.9-1-0.9c-0.6,0-1.1,0.4-1.8,1.1c-0.4-0.2-0.9-0.4-1.4-0.4c-1.5,0-3,1.2-3,2.9c0,0.7,0.3,1.4,0.9,1.8 c-1.2,0.5-1.8,0.9-1.8,1.5c0,0.5,0.3,0.7,1.3,1.1v0.1C-991.9,2878.5-992.9,2879.1-992.9,2880L-992.9,2880z M-986.5,2879.9 c0,0.8-0.9,1.4-2.5,1.4c-1.5,0-2.8-0.4-2.8-1.4c0-0.7,0.7-1.4,2.2-1.4C-987.7,2878.5-986.5,2879.1-986.5,2879.9L-986.5,2879.9z M-986.4,2872.7c0,1.5-0.8,3.1-1.9,3.1c-0.7,0-1.2-0.6-1.2-1.6c0-1.4,0.8-3,1.9-3C-986.8,2871.2-986.4,2871.9-986.4,2872.7 L-986.4,2872.7z M-998,2875.8c0,1.9,1,2.9,2.3,2.9c1.3,0,2.2-0.7,3.2-1.9l-0.2-0.2c-0.9,1-1.6,1.4-2.6,1.4c-0.8,0-1.4-0.8-1.4-2.1 c0-0.2,0-0.3,0-0.5c3.3-0.6,4.8-1.7,4.8-3.1c0-1-0.7-1.5-1.7-1.5C-996,2870.8-998,2873.7-998,2875.8L-998,2875.8z M-993.3,2872.4 c0,1.4-0.7,2.1-3.4,2.6c0.3-2.1,1.7-3.8,2.6-3.8C-993.6,2871.3-993.3,2871.6-993.3,2872.4L-993.3,2872.4z M-1002.3,2875.6 c-0.2,2.3,0.3,2.9,1.4,2.9c0.9,0,1.5-0.6,2-2.3h-0.4c-0.3,0.9-0.6,1.3-1.1,1.3c-0.3,0-0.5-0.3-0.4-1.6c0.1-1.9-0.3-2.8-1.5-3.3 v-0.1c1.7-0.2,3.9-1.1,3.9-2.8c0-1.8-1.4-2.7-3.8-2.7h-4.3l-0.1,0.4h0.5c0.8,0,1.1,0.2,0.9,1l-2,8.2c-0.2,0.8-0.6,1-1.4,1h-0.5 l-0.1,0.4h4.8l0.1-0.4h-0.6c-0.8,0-1.1-0.2-0.9-1l1-4h1.1C-1002.4,2872.9-1002.1,2873.5-1002.3,2875.6L-1002.3,2875.6z M-1004.8,2872.5l0.9-3.8c0.2-0.8,0.6-1,1.4-1h0.3c1.6,0,2.2,0.6,2.2,1.8c0,1.8-1.3,3-3.5,3H-1004.8z M-1018.1,2875.8 c0,1.9,1,2.9,2.3,2.9c1.3,0,2.2-0.7,3.2-1.9l-0.2-0.2c-0.9,1-1.6,1.4-2.6,1.4c-0.8,0-1.4-0.8-1.4-2.1c0-0.2,0-0.3,0-0.5 c3.3-0.6,4.8-1.7,4.8-3.1c0-1-0.7-1.5-1.7-1.5C-1016.1,2870.8-1018.1,2873.7-1018.1,2875.8L-1018.1,2875.8z M-1013.3,2872.4 c0,1.4-0.7,2.1-3.4,2.6c0.3-2.1,1.7-3.8,2.6-3.8C-1013.7,2871.3-1013.3,2871.6-1013.3,2872.4L-1013.3,2872.4z M-1022.1,2877.4 c0,0.6,0.3,1.1,1,1.1c0.9,0,1.5-0.8,2.3-2l-0.2-0.2c-0.7,1.1-1.2,1.6-1.5,1.6c-0.2,0-0.4-0.2-0.4-0.5c0-0.2,0.2-0.8,0.3-1.1 l0.9-2.4c0.2-0.4,0.4-1.1,0.4-1.6c0-0.8-0.4-1.3-1.2-1.3c-1.2,0-2.3,1.3-3.3,3l-0.1,0l1-3l1.1-3.9l-2.7,0.3l-0.1,0.4h0.5 c0.6,0,0.8,0.1,0.8,0.4c0,0.1,0,0.3-0.1,0.6l-2.8,9.7h1.2l0.6-2c0.6-2,2.3-4.7,3.5-4.7c0.4,0,0.6,0.2,0.6,0.6 c0,0.4-0.2,1.1-0.4,1.5l-0.9,2.4C-1022,2876.6-1022.1,2877.1-1022.1,2877.4L-1022.1,2877.4z M-1035.1,2878.4h5.3l0.1-0.4h-0.8 c-0.8,0-1.1-0.2-0.9-1l2.3-9.2h0.1c2.7,0,2.6,1.3,2.3,3.9h0.3l0.9-4.3h-8.6l-1.3,4.3h0.4c1.1-2.6,1.8-3.9,4.3-3.9h0.1l-2.3,9.2 c-0.2,0.8-0.6,1-1.4,1h-0.8L-1035.1,2878.4z M-963.5,2862.5h10.8v-54h-10.8V2862.5z M-963.5,2862.5h10.8v-54h-10.8V2862.5z M-704.5,2786.9v0.7l1.6,0.5l-2.5,5.1l-2.9-5l1.5-0.5v-0.7h-6.1v0.7l1.2,0.5l3.8,6.2v3.6l-1.6,0.5v0.7h6.5v-0.7l-1.6-0.5v-3.8 l3.5-6l1.3-0.5v-0.7H-704.5z M-734.5,2798.9h6.6v-0.7l-1.7-0.5v-10.2l1.7,0.3l2.1,3.8l0.5-0.1l-0.3-4.7h-11.2l-0.3,4.7l0.5,0.1 l2.1-3.8l1.7-0.3v10.2l-1.7,0.5V2798.9z M-752.5,2799.1h1.6V2788l1.3-0.5v-0.7h-4.3v0.7l1.5,0.5l0.6,6.8l-5.9-8h-4.6v0.7l1.4,0.5 v9.8l-1.4,0.5v0.7h4.6v-0.7l-1.5-0.5l-0.7-8.8L-752.5,2799.1z M-786.6,2794.6c0,3,2,4.4,5.2,4.4c3.2,0,4.4-1.3,4.5-3.7l0.5-7.4 l1.2-0.5v-0.7h-4.4v0.7l1.5,0.5v7c0,2.1-0.7,2.9-2.5,2.9c-2.1,0-2.8-0.7-2.8-2.8v-7.1l1.4-0.5v-0.7h-6v0.7l1.4,0.5V2794.6 L-786.6,2794.6z M-813.6,2793c0,3.3,2.8,6.1,6.4,6.1c3.6,0,6.5-2.8,6.5-6.1c0-3.3-2.9-6.2-6.5-6.2 C-810.7,2786.7-813.6,2789.6-813.6,2793L-813.6,2793z M-804.1,2793c0,3.9-1.1,5-3.1,5c-2.1,0-3-1.1-3-5c0-4.1,0.8-5.1,3-5.1 C-805,2787.9-804.1,2788.9-804.1,2793L-804.1,2793z M-841,2792c0,3.9,2.9,7.1,7.2,7.1c2.5,0,4.4-1.2,5.6-3.3l-0.8-0.6 c-1,1.5-2.5,2.6-4.3,2.6c-2.4,0-3.6-1-3.6-5.6c0-4.8,1-6,3.2-6c1.6,0,2.5,0.7,4.7,4.4l0.6-0.1l-0.4-5.4h-0.7l-0.6,1 c-0.8-0.6-1.8-1.1-3.7-1.1C-838,2784.8-841,2788.2-841,2792L-841,2792z M-861.7,2798c0.8,0.6,1.9,1.1,3.3,1.1 c2.6,0,4.4-1.6,4.4-3.8c0-2.2-1.7-3.4-4.2-4.1c-2.3-0.6-2.8-0.9-2.8-2c0-0.8,0.6-1.3,1.8-1.3c1.6,0,2.3,0.7,3.8,2.7l0.5-0.1 l-0.3-3.6h-0.8l-0.4,0.8c-0.5-0.4-1.5-0.9-2.8-0.9c-2.4,0-3.8,1.4-3.8,3.3c0,2.2,1.3,3.3,4,4.1c2.3,0.7,2.8,1.1,2.8,2.2 c0,1-0.9,1.5-2.2,1.5c-1.9,0-2.7-0.8-4.5-3.6l-0.5,0.2l0.4,4.5h0.9L-861.7,2798L-861.7,2798z M-883.2,2792.5h-1.3v-4.5l1.3-0.5 v-0.7h-6v0.7l1.5,0.5v9.8l-1.5,0.5v0.7h6v-0.7l-1.3-0.5v-4.2h1.1l2.9,4.3l-1,0.4v0.7h5.6v-0.7l-1-0.4c0,0-4.4-6.2-4.4-6.2 c0,0,3.5-3.7,3.5-3.7l1.3-0.4v-0.7h-4.4v0.7l1.2,0.4L-883.2,2792.5z M-906.5,2793.2c2.1-0.4,3.4-1.3,3.4-3c0-2.3-2-3.4-5-3.4h-6.1 v0.7l1.4,0.5v9.8l-1.4,0.5v0.7h6.1v-0.7l-1.4-0.5v-4.1h0.7c1.4,0,1.5,0.2,2.9,4.6c0.1,0.4,0.4,0.6,1,0.6h3.3v-0.7l-1.1-0.5l-1-2.3 C-904.3,2794-905.2,2793.4-906.5,2793.2L-906.5,2793.2z M-909.6,2792.7v-4.7h1.2c1.7,0,2.1,0.3,2.1,2.3c0,2-0.4,2.4-2.3,2.4 H-909.6z M-931.8,2792.2c0,0-1.7,0.1-1.7,0.2v-4.7l3.4,0.3l2,3l0.5-0.1l-0.3-4h-10.2v0.7l1.4,0.5v9.8l-1.4,0.5v0.7h10.9l0.4-4.6 l-0.5-0.1l-2.2,3.6l-3.9,0.3v-4.9l1.7,0.1l0.7,1.7h0.6v-4.8h-0.6L-931.8,2792.2L-931.8,2792.2z M-965.7,2798.9h7.2 c3.5,0,5.8-1.3,5.8-3.8c0-2.3-1.8-3.3-4-3.6v-0.1c1.8-0.3,3.2-1.3,3.2-3c0-2.5-2.5-3.5-5.4-3.5h-6.9v0.8l1.7,0.5v11.4l-1.7,0.5 V2798.9z M-960.4,2791v-4.7h1c1.8,0,2.5,0.4,2.5,2.4c0,1.8-0.6,2.3-2.6,2.3H-960.4z M-960.4,2797.6v-5.4h1.3c2,0,2.7,0.9,2.7,2.8 c0,2.1-0.7,2.6-2.6,2.6H-960.4z M-710.4,2859.9c0,4.8,0,10.9-8.7,14.4c-4.4,1.8-9.1,2.2-13.8,2.2c-3.7,0-9.1-0.4-12.8-1.6 c-7.6-2.6-7.7-6.8-7.8-9.6l-10.9,0.4c0.4,4.6,1.1,13.1,12.9,17.2c3.5,1.2,9.7,2.4,17.3,2.4c10,0,22.7-1.8,29.3-9.1 c4.4-5.1,4.4-11.3,4.4-17v-50.4h-10v6.3c-3.3-2.3-10.2-7.3-24.2-7.3c-21.2,0-32.1,12.1-32.1,27.8c0,18.3,15.2,27.3,31.2,27.3 c13.8,0,20.5-5.4,25.2-9.2V2859.9z M-734,2816.1c11.4-0.3,23.4,5.7,23.4,18.7c0,10.1-8.4,19.2-22.9,19.2 c-12.7,0-22.3-6.8-22.3-18.6C-755.8,2823.1-745.9,2816.4-734,2816.1z M-710.4,2859.9c0,4.8,0,10.9-8.7,14.4 c-4.4,1.8-9.1,2.2-13.8,2.2c-3.7,0-9.1-0.4-12.8-1.6c-7.6-2.6-7.7-6.8-7.8-9.6l-10.9,0.4c0.4,4.6,1.1,13.1,12.9,17.2 c3.5,1.2,9.7,2.4,17.3,2.4c10,0,22.7-1.8,29.3-9.1c4.4-5.1,4.4-11.3,4.4-17v-50.4h-10v6.3c-3.3-2.3-10.2-7.3-24.2-7.3 c-21.2,0-32.1,12.1-32.1,27.8c0,18.3,15.2,27.3,31.2,27.3c13.8,0,20.5-5.4,25.2-9.2V2859.9z M-755.8,2835.5 c0-12.3,10-19,21.8-19.4c11.4-0.3,23.4,5.7,23.4,18.7c0,10.1-8.4,19.2-22.9,19.2C-746.3,2854.1-755.8,2847.2-755.8,2835.5 L-755.8,2835.5z M-832.1,2809h-10.5v53.5h10.5V2837c0-5.7,0.1-13.9,10.2-18.4c4.6-2,8.4-2.3,11.9-2.3c3.6,0,9.9,0.3,14.8,4.3 c5,3.9,5.1,8.9,5.2,13.6v28.3h10.3v-28.9c0-5.8-0.1-11.5-4.3-16.8c-5.4-6.7-14.8-9.4-24.2-9.4c-5.6,0-10.5,0.9-15,2.6 c-4.6,1.8-6.5,3.4-8.9,5.5V2809z M-832.1,2809h-10.5v53.5h10.5V2837c0-5.7,0.1-13.9,10.2-18.4c4.6-2,8.4-2.3,11.9-2.3 c3.6,0,9.9,0.3,14.8,4.3c5,3.9,5.1,8.9,5.2,13.6v28.3h10.3v-28.9c0-5.8-0.1-11.5-4.3-16.8c-5.4-6.7-14.8-9.4-24.2-9.4 c-5.6,0-10.5,0.9-15,2.6c-4.6,1.8-6.5,3.4-8.9,5.5V2809z M-870,2862.5h10.8v-53.8H-870V2862.5z M-870,2862.5h10.8v-53.8H-870 V2862.5z M-945.5,2808.6l27.7,53.8h11.9l28.3-53.8h-12.1l-22.2,43.2l-21.9-43.2H-945.5z M-945.5,2808.6l27.7,53.8h11.9l28.3-53.8 h-12.1l-22.2,43.2l-21.9-43.2H-945.5z M-1036,2862.5h63.1v-9.5h-52v-68.4h-11.1V2862.5z M-1036,2784.5v77.9h63.1v-9.5h-52v-68.4 H-1036z"></path> </g> </g> </svg> 